<?xml version="1.0" encoding="UTF-8" standalone="no"?>
<svg
   xmlns:dc="http://purl.org/dc/elements/1.1/"
   xmlns:cc="http://creativecommons.org/ns#"
   xmlns:rdf="http://www.w3.org/1999/02/22-rdf-syntax-ns#"
   xmlns:svg="http://www.w3.org/2000/svg"
   xmlns="http://www.w3.org/2000/svg"
   version="1.1"
   x="0px"
   y="0px"
   width="288px"
   height="288px"
   viewBox="0 0 288 288"
   enable-background="new 0 0 288 288"
   xml:space="preserve"
   id="svg2"><defs
     id="defs11" /><title
     id="title4900">powermail_slowexport</title><metadata
     id="metadata26"><rdf:RDF><cc:Work
         rdf:about=""><dc:format>image/svg+xml</dc:format><dc:type
           rdf:resource="http://purl.org/dc/dcmitype/StillImage" /><dc:title>powermail_slowexport</dc:title></cc:Work></rdf:RDF></metadata><rect
     x="0"
     y="0"
     width="288"
     height="288"
     id="rect9"
     style="fill:#f29400" /><path
     id="path17"
     d="m 148.03516,45.876953 c -14.37199,0.115122 -28.76152,2.910874 -42.06641,8.029297 -30.607257,11.550143 -51.157134,41.588678 -56.382812,73.18555 -5.493006,31.56231 3.18724,67.83048 29.226562,88.25586 26.12968,19.69054 60.92397,23.05043 92.51562,19.49414 27.3024,-3.20911 55.26681,-17.47647 67.4375,-43.22071 l -21.0625,0 c -16.7335,21.47196 -45.37733,26.81481 -71.07031,26.27149 C 122.28738,217.385 95.304568,210.74183 80.054688,190.2168 61.896974,166.60439 62.685059,133.17322 74.888672,107.08594 85.038821,83.32035 109.15655,67.496237 134.55664,65.033203 c 23.74461,-2.92417 51.2211,0.543495 67.69531,19.714844 20.14887,21.829383 16.73849,58.713893 -4.26562,78.767573 -4.06962,4.37529 -16.26002,13.59972 -19.84766,7.49219 l -25.84765,15.74805 c 1.05864,1.86065 2.35548,3.86455 4.51953,4.54883 10.91612,4.3605 23.4682,1.79232 34.18945,-2.04688 28.87059,-12.2587 46.07196,-45.39408 42.03516,-76.14648 -2.43721,-25.560562 -19.04485,-49.436186 -43.03907,-59.177736 -13.23394,-5.60559 -27.58895,-8.171763 -41.96093,-8.056641 z"
     style="fill:#ffffff;" /><g
     id="layer4"
     style="display:inline"><path
       id="path4898"
       style="font-style:italic;font-variant:normal;font-weight:bold;font-stretch:normal;font-size:156.25px;line-height:125%;font-family:Arial;-inkscape-font-specification:'Arial Bold Italic';letter-spacing:0px;word-spacing:0px;fill:#ffffff;fill-opacity:1;stroke:none;stroke-width:1px;stroke-linecap:butt;stroke-linejoin:miter;stroke-opacity:1;"
       d="m 178.33049,139.66792 -54.93164,0 q -0.0763,1.297 -0.0763,1.98365 0,8.08715 4.57763,13.04626 4.65393,4.95911 11.29151,4.95911 10.91003,0 17.01355,-11.29151 l 19.60754,3.28064 q -5.72205,11.82556 -15.33508,17.77649 -9.53675,5.87464 -21.4386,5.87464 -16.32691,0 -26.55029,-10.29969 -10.22339,-10.37597 -10.22339,-27.38952 0,-16.63208 9.23156,-29.60205 12.5885,-17.547612 35.93445,-17.547612 14.87732,0 23.65113,9.231568 8.7738,9.155274 8.7738,25.711064 0,7.93457 -1.52588,14.26696 z m -18.46313,-13.35144 q 0.0763,-1.44958 0.0763,-2.21252 0,-9.00269 -4.04358,-13.50403 -4.04358,-4.50134 -10.83374,-4.50134 -6.79016,0 -12.20703,5.11169 -5.34058,5.1117 -7.24793,15.1062 l 34.25599,0 z" /></g></svg>